<svg width="671" height="163" viewBox="0 0 671 163" fill="none" xmlns="http://www.w3.org/2000/svg">
<path d="M233.448 126V36.4H264.808L280.296 114.48H282.6L298.088 36.4H329.448V126H313.064V48.816H310.76L295.4 126H267.496L252.136 48.816H249.832V126H233.448ZM346.835 126V62.512H362.963V126H346.835ZM354.899 55.088C351.998 55.088 349.523 54.1493 347.475 52.272C345.512 50.3947 344.531 47.92 344.531 44.848C344.531 41.776 345.512 39.3013 347.475 37.424C349.523 35.5467 351.998 34.608 354.899 34.608C357.886 34.608 360.36 35.5467 362.323 37.424C364.286 39.3013 365.267 41.776 365.267 44.848C365.267 47.92 364.286 50.3947 362.323 52.272C360.36 54.1493 357.886 55.088 354.899 55.088ZM380.835 126V36.4H396.963V126H380.835ZM414.835 126V62.512H430.963V126H414.835ZM422.899 55.088C419.998 55.088 417.523 54.1493 415.475 52.272C413.512 50.3947 412.531 47.92 412.531 44.848C412.531 41.776 413.512 39.3013 415.475 37.424C417.523 35.5467 419.998 34.608 422.899 34.608C425.886 34.608 428.36 35.5467 430.323 37.424C432.286 39.3013 433.267 41.776 433.267 44.848C433.267 47.92 432.286 50.3947 430.323 52.272C428.36 54.1493 425.886 55.088 422.899 55.088ZM448.323 126V36.4H465.219V71.984H467.523L496.579 36.4H518.211L480.835 80.56L519.491 126H497.219L467.523 89.648H465.219V126H448.323ZM556.138 127.792C549.823 127.792 544.234 126.469 539.37 123.824C534.591 121.093 530.837 117.296 528.106 112.432C525.461 107.483 524.138 101.68 524.138 95.024V93.488C524.138 86.832 525.461 81.072 528.106 76.208C530.751 71.2587 534.463 67.4613 539.242 64.816C544.021 62.0853 549.567 60.72 555.882 60.72C562.111 60.72 567.53 62.128 572.138 64.944C576.746 67.6747 580.33 71.5147 582.89 76.464C585.45 81.328 586.73 87.0027 586.73 93.488V98.992H540.522C540.693 103.344 542.314 106.885 545.386 109.616C548.458 112.347 552.213 113.712 556.65 113.712C561.173 113.712 564.501 112.731 566.634 110.768C568.767 108.805 570.389 106.629 571.498 104.24L584.682 111.152C583.487 113.371 581.738 115.803 579.434 118.448C577.215 121.008 574.229 123.227 570.474 125.104C566.719 126.896 561.941 127.792 556.138 127.792ZM540.65 86.96H570.346C570.005 83.2907 568.511 80.3467 565.866 78.128C563.306 75.9093 559.935 74.8 555.754 74.8C551.402 74.8 547.946 75.9093 545.386 78.128C542.826 80.3467 541.247 83.2907 540.65 86.96ZM607.997 151.6V137.52H642.557C644.946 137.52 646.141 136.24 646.141 133.68V117.68H643.837C643.154 119.131 642.088 120.581 640.637 122.032C639.186 123.483 637.224 124.677 634.749 125.616C632.274 126.555 629.117 127.024 625.277 127.024C620.328 127.024 615.976 125.915 612.221 123.696C608.552 121.392 605.693 118.235 603.645 114.224C601.597 110.213 600.573 105.605 600.573 100.4V62.512H616.701V99.12C616.701 103.899 617.853 107.483 620.157 109.872C622.546 112.261 625.917 113.456 630.269 113.456C635.218 113.456 639.058 111.835 641.789 108.592C644.52 105.264 645.885 100.656 645.885 94.768V62.512H662.013V137.264C662.013 141.616 660.733 145.072 658.173 147.632C655.613 150.277 652.2 151.6 647.933 151.6H607.997Z" fill="black"/>
<path fill-rule="evenodd" clip-rule="evenodd" d="M114.24 75.901L28.4917 32C28.4917 61.7059 45.1261 88.9102 71.5679 102.448C92.9373 113.388 114.24 124.295 114.24 124.295V75.901V75.901Z" fill="black"/>
<path fill-rule="evenodd" clip-rule="evenodd" d="M186.895 124.295C186.895 94.5888 170.261 67.3845 143.819 53.8469C122.449 42.9063 101.147 32 101.147 32V80.3937L186.895 124.295V124.295Z" fill="black"/>
<path fill-rule="evenodd" clip-rule="evenodd" d="M26.6304 124.295L19.1116 106.076L0.893066 98.5576L19.1116 91.0389L26.6304 72.8203L34.1491 91.0389L52.3675 98.5576L34.1491 106.076L26.6304 124.295V124.295Z" fill="black"/>
</svg>
