<?xml version="1.0" encoding="UTF-8" standalone="no"?><!DOCTYPE svg PUBLIC "-//W3C//DTD SVG 1.1//EN" "http://www.w3.org/Graphics/SVG/1.1/DTD/svg11.dtd"><svg width="100%" height="100%" viewBox="0 0 1173 582" version="1.1" xmlns="http://www.w3.org/2000/svg" xmlns:xlink="http://www.w3.org/1999/xlink" xml:space="preserve" xmlns:serif="http://www.serif.com/" style="fill-rule:evenodd;clip-rule:evenodd;stroke-linejoin:round;stroke-miterlimit:2;"><g><g><path d="M714.37,276.687l-540.429,-276.687c-0,0 -0,0 -0,0c-0,187.222 104.839,358.678 271.489,443.999c134.681,68.953 268.94,137.691 268.94,137.691l-0,-305.003Z"/><path d="M1172.28,581.69c-0,-187.222 -104.84,-358.678 -271.49,-443.999c-134.681,-68.954 -268.94,-137.691 -268.94,-137.691l0,305.003l540.43,276.687l-0,-0Z"/></g><path d="M162.21,581.69l-47.387,-114.823l-114.823,-47.387l114.823,-47.387l47.387,-114.823l47.387,114.823l114.822,47.387l-114.822,47.387l-47.387,114.823Z"/></g></svg>